<?xml version="1.0" encoding="UTF-8" standalone="no"?>
<svg width="32" height="32" viewBox="0 0 32 32" xmlns="http://www.w3.org/2000/svg">
  <!-- Background rounded square like VS Code -->
  <rect x="2" y="2" width="28" height="28" rx="4" ry="4" fill="#1e1e1e"/>

  <!-- Main icon shape - stylized house/home symbol -->
  <g fill="#ffffff">
    <!-- House roof -->
    <path d="M16 8 L24 13 L23 13 L23 14 L9 14 L9 13 L8 13 Z"/>

    <!-- House body -->
    <rect x="10" y="14" width="12" height="10" rx="0.5"/>

    <!-- Door -->
    <rect x="14" y="18" width="4" height="6" rx="0.5" fill="#1e1e1e"/>

    <!-- Door handle -->
    <circle cx="16.5" cy="21" r="0.3" fill="#ffffff"/>

    <!-- Windows -->
    <rect x="11" y="16" width="2.5" height="2.5" rx="0.2" fill="#1e1e1e"/>
    <rect x="18.5" y="16" width="2.5" height="2.5" rx="0.2" fill="#1e1e1e"/>

    <!-- Window crosses -->
    <line x1="12.25" y1="16" x2="12.25" y2="18.5" stroke="#ffffff" stroke-width="0.1"/>
    <line x1="11" y1="17.25" x2="13.5" y2="17.25" stroke="#ffffff" stroke-width="0.1"/>
    <line x1="19.75" y1="16" x2="19.75" y2="18.5" stroke="#ffffff" stroke-width="0.1"/>
    <line x1="18.5" y1="17.25" x2="21" y2="17.25" stroke="#ffffff" stroke-width="0.1"/>
  </g>

  <!-- Subtle urgency indicator - small clock/timer -->
  <g fill="#666666" opacity="0.7">
    <circle cx="25" cy="9" r="1.5"/>
    <circle cx="25" cy="9" r="1" fill="#1e1e1e"/>
    <line x1="25" y1="9" x2="25" y2="8.2" stroke="#666666" stroke-width="0.2"/>
    <line x1="25" y1="9" x2="25.6" y2="9" stroke="#666666" stroke-width="0.2"/>
  </g>

  <!-- Modern accent - subtle gradient overlay -->
  <defs>
    <linearGradient id="accent" x1="0%" y1="0%" x2="100%" y2="100%">
      <stop offset="0%" style="stop-color:#ffffff;stop-opacity:0.1"/>
      <stop offset="100%" style="stop-color:#ffffff;stop-opacity:0"/>
    </linearGradient>
  </defs>
  <rect x="2" y="2" width="28" height="28" rx="4" ry="4" fill="url(#accent)"/>
</svg>
