<?xml version="1.0" encoding="UTF-8" standalone="no"?>
<svg width="200" height="200" viewBox="0 0 200 200" xmlns="http://www.w3.org/2000/svg">
  <!-- Background rounded square like VS Code -->
  <rect x="20" y="20" width="160" height="160" rx="24" ry="24" fill="#1e1e1e"/>

  <!-- Main icon shape - stylized house/home symbol -->
  <g fill="#ffffff">
    <!-- House roof -->
    <path d="M100 50 L140 80 L135 80 L135 85 L65 85 L65 80 L60 80 Z"/>

    <!-- House body -->
    <rect x="70" y="85" width="60" height="50" rx="2"/>

    <!-- Door -->
    <rect x="90" y="105" width="20" height="30" rx="2" fill="#1e1e1e"/>

    <!-- Door handle -->
    <circle cx="105" cy="120" r="1.5" fill="#ffffff"/>

    <!-- Windows -->
    <rect x="75" y="95" width="12" height="12" rx="1" fill="#1e1e1e"/>
    <rect x="113" y="95" width="12" height="12" rx="1" fill="#1e1e1e"/>

    <!-- Window crosses -->
    <line x1="81" y1="95" x2="81" y2="107" stroke="#ffffff" stroke-width="0.5"/>
    <line x1="75" y1="101" x2="87" y2="101" stroke="#ffffff" stroke-width="0.5"/>
    <line x1="119" y1="95" x2="119" y2="107" stroke="#ffffff" stroke-width="0.5"/>
    <line x1="113" y1="101" x2="125" y2="101" stroke="#ffffff" stroke-width="0.5"/>
  </g>

  <!-- Subtle urgency indicator - small clock/timer -->
  <g fill="#666666" opacity="0.7">
    <circle cx="150" cy="60" r="8"/>
    <circle cx="150" cy="60" r="6" fill="#1e1e1e"/>
    <line x1="150" y1="60" x2="150" y2="56" stroke="#666666" stroke-width="1"/>
    <line x1="150" y1="60" x2="153" y2="60" stroke="#666666" stroke-width="1"/>
  </g>

  <!-- Modern accent - subtle gradient overlay -->
  <defs>
    <linearGradient id="accent" x1="0%" y1="0%" x2="100%" y2="100%">
      <stop offset="0%" style="stop-color:#ffffff;stop-opacity:0.1"/>
      <stop offset="100%" style="stop-color:#ffffff;stop-opacity:0"/>
    </linearGradient>
  </defs>
  <rect x="20" y="20" width="160" height="160" rx="24" ry="24" fill="url(#accent)"/>
</svg>
